<svg xmlns="http://www.w3.org/2000/svg" width="100%" viewBox="0 0 172 145" fill="none"><path d="M34 114.21C19.7484 111.974 9.44198 102.44 6.29466 91L3.8147e-06 91L1.45428e-06 145L6.29465 145C9.44198 133.56 19.7484 124.026 34 121.79L34 114.234L34 114.21Z" fill="currentColor"></path><path d="M34 23.2101C19.7484 20.9738 9.44198 11.4403 6.29466 -1.21104e-06L3.8147e-06 -1.48619e-06L1.45428e-06 54L6.29465 54C9.44198 42.5597 19.7484 33.0262 34 30.7899L34 23.2337L34 23.2101Z" fill="currentColor"></path><path d="M103 114.21C88.7484 111.974 78.442 102.44 75.2947 91L69 91L69 145L75.2947 145C78.442 133.56 88.7484 124.026 103 121.79L103 114.234L103 114.21Z" fill="currentColor"></path><path d="M103 23.2101C88.7484 20.9738 78.442 11.4403 75.2947 -1.21104e-06L69 -1.48619e-06L69 54L75.2947 54C78.442 42.5597 88.7484 33.0262 103 30.7899L103 23.2337L103 23.2101Z" fill="currentColor"></path><path d="M172 114.21C157.748 111.974 147.442 102.44 144.295 91L138 91L138 145L144.295 145C147.442 133.56 157.748 124.026 172 121.79L172 114.234L172 114.21Z" fill="currentColor"></path><path d="M172 23.2101C157.748 20.9738 147.442 11.4403 144.295 -1.21104e-06L138 -1.48619e-06L138 54L144.295 54C147.442 42.5597 157.748 33.0262 172 30.7899L172 23.2337L172 23.2101Z" fill="currentColor"></path></svg>