<svg xmlns="http://www.w3.org/2000/svg" width="100%" viewBox="0 0 206 136" fill="none"><path d="M23.2101 101C20.9738 115.252 11.4403 125.558 0 128.705L0 135H54V128.705C42.5597 125.558 33.0262 115.252 30.7899 101H23.2337H23.2101Z" fill="currentColor"></path><path d="M20 60.7899C34.2516 63.0262 44.558 72.5597 47.7053 84L54 84L54 30L47.7053 30C44.558 41.4403 34.2516 50.9738 20 53.2101L20 60.7663L20 60.7899Z" fill="currentColor"></path><path d="M88.7716 118.814C100.43 110.317 114.459 109.771 124.774 115.635L129.225 111.184L91.0415 73.0002L86.5905 77.4512C92.4545 87.7662 91.908 101.795 83.4119 113.454L88.7549 118.797L88.7716 118.814Z" fill="currentColor"></path><path d="M121 23.2101C106.748 20.9738 96.442 11.4403 93.2947 -1.21104e-06L87 -1.48619e-06L87 54L93.2947 54C96.442 42.5597 106.748 33.0262 121 30.7899L121 23.2337L121 23.2101Z" fill="currentColor"></path><path d="M182.79 135C185.026 120.748 194.56 110.442 206 107.295L206 101L152 101L152 107.295C163.44 110.442 172.974 120.748 175.21 135L182.766 135L182.79 135Z" fill="currentColor"></path><path d="M155.101 40.3949C160.29 53.8553 157.187 67.5477 148.853 75.9935L152 81.4449L198.765 54.4449L195.618 48.9935C184.137 51.988 170.727 47.8292 161.665 36.6051L155.121 40.3832L155.101 40.3949Z" fill="currentColor"></path></svg>