<?xml version="1.0" encoding="UTF-8"?>
<svg xmlns="http://www.w3.org/2000/svg" xmlns:xlink="http://www.w3.org/1999/xlink" width="4000" height="4000" viewBox="0 0 4000 4000">
<defs>
<clipPath id="clip-0">
<path clip-rule="nonzero" d="M 2681 676 L 3633 676 L 3633 1799 L 2681 1799 Z M 2681 676 "/>
</clipPath>
<clipPath id="clip-1">
<path clip-rule="nonzero" d="M 2764.78125 676.589844 C 2764.78125 676.589844 2942.121094 661.96875 3173.578125 858.789062 C 3286.039062 954.410156 3437.941406 1152.199219 3511.941406 1308.75 C 3612.988281 1522.5 3632.550781 1718.050781 3632.550781 1718.050781 C 3632.550781 1718.050781 3189.398438 2006.71875 2833.261719 1492.949219 C 2536.929688 1065.46875 2764.78125 676.589844 2764.78125 676.589844 Z M 2764.78125 676.589844 "/>
</clipPath>
<clipPath id="clip-2">
<path clip-rule="nonzero" d="M 2764.78125 676.589844 C 2764.78125 676.589844 2942.121094 661.96875 3173.578125 858.789062 C 3286.039062 954.410156 3437.941406 1152.199219 3511.941406 1308.75 C 3612.988281 1522.5 3632.550781 1718.050781 3632.550781 1718.050781 C 3632.550781 1718.050781 3189.398438 2006.71875 2833.261719 1492.949219 C 2536.929688 1065.46875 2764.78125 676.589844 2764.78125 676.589844 "/>
</clipPath>
<linearGradient id="linear-pattern-0" gradientUnits="userSpaceOnUse" x1="-0.812217" y1="0" x2="2.089865" y2="0" gradientTransform="matrix(-394.588, 448.361, 448.361, 394.588, 3333.05, 1044.61)">
<stop offset="0" stop-color="rgb(97.253418%, 76.469421%, 64.312744%)" stop-opacity="1"/>
<stop offset="0.25" stop-color="rgb(97.253418%, 76.469421%, 64.312744%)" stop-opacity="1"/>
<stop offset="0.28125" stop-color="rgb(97.253418%, 76.454163%, 64.286804%)" stop-opacity="1"/>
<stop offset="0.289062" stop-color="rgb(97.259521%, 76.348877%, 64.11438%)" stop-opacity="1"/>
<stop offset="0.296875" stop-color="rgb(97.268677%, 76.171875%, 63.821411%)" stop-opacity="1"/>
<stop offset="0.304688" stop-color="rgb(97.277832%, 75.993347%, 63.526917%)" stop-opacity="1"/>
<stop offset="0.3125" stop-color="rgb(97.286987%, 75.816345%, 63.233948%)" stop-opacity="1"/>
<stop offset="0.320312" stop-color="rgb(97.296143%, 75.637817%, 62.940979%)" stop-opacity="1"/>
<stop offset="0.328125" stop-color="rgb(97.303772%, 75.460815%, 62.64801%)" stop-opacity="1"/>
<stop offset="0.335938" stop-color="rgb(97.312927%, 75.282288%, 62.353516%)" stop-opacity="1"/>
<stop offset="0.34375" stop-color="rgb(97.322083%, 75.10376%, 62.060547%)" stop-opacity="1"/>
<stop offset="0.351562" stop-color="rgb(97.331238%, 74.926758%, 61.767578%)" stop-opacity="1"/>
<stop offset="0.359375" stop-color="rgb(97.340393%, 74.74823%, 61.473083%)" stop-opacity="1"/>
<stop offset="0.367188" stop-color="rgb(97.349548%, 74.571228%, 61.180115%)" stop-opacity="1"/>
<stop offset="0.375" stop-color="rgb(97.357178%, 74.3927%, 60.887146%)" stop-opacity="1"/>
<stop offset="0.382812" stop-color="rgb(97.366333%, 74.215698%, 60.594177%)" stop-opacity="1"/>
<stop offset="0.390625" stop-color="rgb(97.375488%, 74.03717%, 60.299683%)" stop-opacity="1"/>
<stop offset="0.398438" stop-color="rgb(97.384644%, 73.860168%, 60.006714%)" stop-opacity="1"/>
<stop offset="0.40625" stop-color="rgb(97.393799%, 73.681641%, 59.713745%)" stop-opacity="1"/>
<stop offset="0.414062" stop-color="rgb(97.402954%, 73.504639%, 59.41925%)" stop-opacity="1"/>
<stop offset="0.421875" stop-color="rgb(97.410583%, 73.326111%, 59.126282%)" stop-opacity="1"/>
<stop offset="0.429688" stop-color="rgb(97.419739%, 73.149109%, 58.833313%)" stop-opacity="1"/>
<stop offset="0.4375" stop-color="rgb(97.428894%, 72.970581%, 58.540344%)" stop-opacity="1"/>
<stop offset="0.445312" stop-color="rgb(97.438049%, 72.792053%, 58.24585%)" stop-opacity="1"/>
<stop offset="0.453125" stop-color="rgb(97.447205%, 72.615051%, 57.952881%)" stop-opacity="1"/>
<stop offset="0.460938" stop-color="rgb(97.45636%, 72.436523%, 57.659912%)" stop-opacity="1"/>
<stop offset="0.46875" stop-color="rgb(97.463989%, 72.259521%, 57.365417%)" stop-opacity="1"/>
<stop offset="0.476562" stop-color="rgb(97.473145%, 72.080994%, 57.072449%)" stop-opacity="1"/>
<stop offset="0.484375" stop-color="rgb(97.4823%, 71.903992%, 56.77948%)" stop-opacity="1"/>
<stop offset="0.492188" stop-color="rgb(97.491455%, 71.725464%, 56.484985%)" stop-opacity="1"/>
<stop offset="0.5" stop-color="rgb(97.50061%, 71.548462%, 56.192017%)" stop-opacity="1"/>
<stop offset="0.507812" stop-color="rgb(97.50824%, 71.369934%, 55.899048%)" stop-opacity="1"/>
<stop offset="0.515625" stop-color="rgb(97.517395%, 71.192932%, 55.606079%)" stop-opacity="1"/>
<stop offset="0.523438" stop-color="rgb(97.52655%, 71.014404%, 55.311584%)" stop-opacity="1"/>
<stop offset="0.53125" stop-color="rgb(97.535706%, 70.837402%, 55.018616%)" stop-opacity="1"/>
<stop offset="0.539062" stop-color="rgb(97.544861%, 70.658875%, 54.725647%)" stop-opacity="1"/>
<stop offset="0.546875" stop-color="rgb(97.554016%, 70.480347%, 54.431152%)" stop-opacity="1"/>
<stop offset="0.554688" stop-color="rgb(97.561646%, 70.303345%, 54.138184%)" stop-opacity="1"/>
<stop offset="0.5625" stop-color="rgb(97.570801%, 70.124817%, 53.845215%)" stop-opacity="1"/>
<stop offset="0.570312" stop-color="rgb(97.579956%, 69.947815%, 53.552246%)" stop-opacity="1"/>
<stop offset="0.578125" stop-color="rgb(97.589111%, 69.769287%, 53.257751%)" stop-opacity="1"/>
<stop offset="0.585938" stop-color="rgb(97.598267%, 69.592285%, 52.964783%)" stop-opacity="1"/>
<stop offset="0.59375" stop-color="rgb(97.607422%, 69.413757%, 52.671814%)" stop-opacity="1"/>
<stop offset="0.601563" stop-color="rgb(97.615051%, 69.236755%, 52.377319%)" stop-opacity="1"/>
<stop offset="0.609375" stop-color="rgb(97.624207%, 69.058228%, 52.084351%)" stop-opacity="1"/>
<stop offset="0.617188" stop-color="rgb(97.633362%, 68.881226%, 51.791382%)" stop-opacity="1"/>
<stop offset="0.625" stop-color="rgb(97.642517%, 68.708801%, 51.507568%)" stop-opacity="1"/>
<stop offset="0.75" stop-color="rgb(97.647095%, 68.626404%, 51.371765%)" stop-opacity="1"/>
<stop offset="1" stop-color="rgb(97.647095%, 68.626404%, 51.371765%)" stop-opacity="1"/>
</linearGradient>
<clipPath id="clip-3">
<path clip-rule="nonzero" d="M 748 1605 L 2379 1605 L 2379 2266 L 748 2266 Z M 748 1605 "/>
</clipPath>
<clipPath id="clip-4">
<path clip-rule="nonzero" d="M 748.28125 1843.800781 C 748.28125 1843.800781 1137.011719 1561.828125 1647.210938 1610.75 C 2174.519531 1661.308594 2378.941406 1945.699219 2378.941406 1945.699219 C 2378.941406 1945.699219 2252.511719 2267.378906 1577.328125 2265.308594 C 930.738281 2263.308594 748.28125 1843.800781 748.28125 1843.800781 Z M 748.28125 1843.800781 "/>
</clipPath>
<clipPath id="clip-5">
<path clip-rule="nonzero" d="M 748.28125 1843.800781 C 748.28125 1843.800781 1137.011719 1561.828125 1647.210938 1610.75 C 2174.519531 1661.308594 2378.941406 1945.699219 2378.941406 1945.699219 C 2378.941406 1945.699219 2252.511719 2267.378906 1577.328125 2265.308594 C 930.738281 2263.308594 748.28125 1843.800781 748.28125 1843.800781 "/>
</clipPath>
<linearGradient id="linear-pattern-1" gradientUnits="userSpaceOnUse" x1="-0.240872" y1="0" x2="1.204375" y2="0" gradientTransform="matrix(-65.4737, 603.493, 603.493, 65.4737, 1593.02, 1623.64)">
<stop offset="0" stop-color="rgb(97.253418%, 74.900818%, 61.959839%)" stop-opacity="1"/>
<stop offset="0.125" stop-color="rgb(97.253418%, 74.900818%, 61.959839%)" stop-opacity="1"/>
<stop offset="0.1875" stop-color="rgb(97.259521%, 74.806213%, 61.799622%)" stop-opacity="1"/>
<stop offset="0.203125" stop-color="rgb(97.270203%, 74.641418%, 61.520386%)" stop-opacity="1"/>
<stop offset="0.21875" stop-color="rgb(97.279358%, 74.499512%, 61.282349%)" stop-opacity="1"/>
<stop offset="0.234375" stop-color="rgb(97.288513%, 74.357605%, 61.042786%)" stop-opacity="1"/>
<stop offset="0.25" stop-color="rgb(97.296143%, 74.215698%, 60.803223%)" stop-opacity="1"/>
<stop offset="0.265625" stop-color="rgb(97.305298%, 74.073792%, 60.565186%)" stop-opacity="1"/>
<stop offset="0.28125" stop-color="rgb(97.314453%, 73.931885%, 60.325623%)" stop-opacity="1"/>
<stop offset="0.296875" stop-color="rgb(97.323608%, 73.789978%, 60.08606%)" stop-opacity="1"/>
<stop offset="0.3125" stop-color="rgb(97.332764%, 73.649597%, 59.848022%)" stop-opacity="1"/>
<stop offset="0.328125" stop-color="rgb(97.340393%, 73.50769%, 59.608459%)" stop-opacity="1"/>
<stop offset="0.34375" stop-color="rgb(97.349548%, 73.365784%, 59.368896%)" stop-opacity="1"/>
<stop offset="0.359375" stop-color="rgb(97.358704%, 73.223877%, 59.130859%)" stop-opacity="1"/>
<stop offset="0.375" stop-color="rgb(97.367859%, 73.08197%, 58.891296%)" stop-opacity="1"/>
<stop offset="0.390625" stop-color="rgb(97.377014%, 72.940063%, 58.651733%)" stop-opacity="1"/>
<stop offset="0.40625" stop-color="rgb(97.384644%, 72.798157%, 58.41217%)" stop-opacity="1"/>
<stop offset="0.421875" stop-color="rgb(97.393799%, 72.657776%, 58.174133%)" stop-opacity="1"/>
<stop offset="0.4375" stop-color="rgb(97.402954%, 72.515869%, 57.93457%)" stop-opacity="1"/>
<stop offset="0.453125" stop-color="rgb(97.412109%, 72.373962%, 57.695007%)" stop-opacity="1"/>
<stop offset="0.46875" stop-color="rgb(97.421265%, 72.232056%, 57.45697%)" stop-opacity="1"/>
<stop offset="0.484375" stop-color="rgb(97.428894%, 72.090149%, 57.217407%)" stop-opacity="1"/>
<stop offset="0.5" stop-color="rgb(97.438049%, 71.948242%, 56.977844%)" stop-opacity="1"/>
<stop offset="0.515625" stop-color="rgb(97.447205%, 71.806335%, 56.739807%)" stop-opacity="1"/>
<stop offset="0.53125" stop-color="rgb(97.45636%, 71.665955%, 56.500244%)" stop-opacity="1"/>
<stop offset="0.546875" stop-color="rgb(97.465515%, 71.524048%, 56.260681%)" stop-opacity="1"/>
<stop offset="0.5625" stop-color="rgb(97.47467%, 71.382141%, 56.021118%)" stop-opacity="1"/>
<stop offset="0.578125" stop-color="rgb(97.4823%, 71.240234%, 55.783081%)" stop-opacity="1"/>
<stop offset="0.59375" stop-color="rgb(97.491455%, 71.098328%, 55.543518%)" stop-opacity="1"/>
<stop offset="0.609375" stop-color="rgb(97.50061%, 70.956421%, 55.303955%)" stop-opacity="1"/>
<stop offset="0.625" stop-color="rgb(97.509766%, 70.814514%, 55.065918%)" stop-opacity="1"/>
<stop offset="0.640625" stop-color="rgb(97.518921%, 70.674133%, 54.826355%)" stop-opacity="1"/>
<stop offset="0.65625" stop-color="rgb(97.52655%, 70.532227%, 54.586792%)" stop-opacity="1"/>
<stop offset="0.671875" stop-color="rgb(97.535706%, 70.39032%, 54.348755%)" stop-opacity="1"/>
<stop offset="0.6875" stop-color="rgb(97.544861%, 70.248413%, 54.109192%)" stop-opacity="1"/>
<stop offset="0.703125" stop-color="rgb(97.554016%, 70.106506%, 53.869629%)" stop-opacity="1"/>
<stop offset="0.71875" stop-color="rgb(97.563171%, 69.9646%, 53.630066%)" stop-opacity="1"/>
<stop offset="0.734375" stop-color="rgb(97.570801%, 69.822693%, 53.392029%)" stop-opacity="1"/>
<stop offset="0.75" stop-color="rgb(97.579956%, 69.682312%, 53.152466%)" stop-opacity="1"/>
<stop offset="0.765625" stop-color="rgb(97.589111%, 69.540405%, 52.912903%)" stop-opacity="1"/>
<stop offset="0.78125" stop-color="rgb(97.598267%, 69.398499%, 52.674866%)" stop-opacity="1"/>
<stop offset="0.796875" stop-color="rgb(97.607422%, 69.256592%, 52.435303%)" stop-opacity="1"/>
<stop offset="0.8125" stop-color="rgb(97.615051%, 69.114685%, 52.19574%)" stop-opacity="1"/>
<stop offset="0.828125" stop-color="rgb(97.624207%, 68.972778%, 51.957703%)" stop-opacity="1"/>
<stop offset="0.84375" stop-color="rgb(97.633362%, 68.830872%, 51.71814%)" stop-opacity="1"/>
<stop offset="0.875" stop-color="rgb(97.642517%, 68.693542%, 51.48468%)" stop-opacity="1"/>
<stop offset="1" stop-color="rgb(97.647095%, 68.626404%, 51.371765%)" stop-opacity="1"/>
</linearGradient>
<clipPath id="clip-6">
<path clip-rule="nonzero" d="M 1830 2670 L 2304 2670 L 2304 2878 L 1830 2878 Z M 1830 2670 "/>
</clipPath>
<clipPath id="clip-7">
<path clip-rule="nonzero" d="M 1832.398438 2696.800781 C 1832.398438 2696.800781 1935.058594 2661.261719 2040.488281 2672.480469 C 2194.890625 2688.898438 2303.480469 2724.300781 2303.480469 2724.300781 C 2303.480469 2724.300781 2255.910156 2829.988281 2182.820312 2854.699219 C 2121.121094 2875.570312 2018.238281 2893.429688 1913.820312 2856.878906 C 1808.328125 2819.96875 1832.398438 2696.800781 1832.398438 2696.800781 Z M 1832.398438 2696.800781 "/>
</clipPath>
<clipPath id="clip-8">
<path clip-rule="nonzero" d="M 1832.398438 2696.800781 C 1832.398438 2696.800781 1935.058594 2661.261719 2040.488281 2672.480469 C 2194.890625 2688.898438 2303.480469 2724.300781 2303.480469 2724.300781 C 2303.480469 2724.300781 2255.910156 2829.988281 2182.820312 2854.699219 C 2121.121094 2875.570312 2018.238281 2893.429688 1913.820312 2856.878906 C 1808.328125 2819.96875 1832.398438 2696.800781 1832.398438 2696.800781 "/>
</clipPath>
<linearGradient id="linear-pattern-2" gradientUnits="userSpaceOnUse" x1="-0.16664" y1="0" x2="1.255018" y2="0" gradientTransform="matrix(-16.6543, 192.066, 192.066, 16.6543, 2070.91, 2673.34)">
<stop offset="0" stop-color="rgb(99.215698%, 94.508362%, 66.665649%)" stop-opacity="1"/>
<stop offset="0.0625" stop-color="rgb(99.215698%, 94.508362%, 66.665649%)" stop-opacity="1"/>
<stop offset="0.09375" stop-color="rgb(99.215698%, 94.508362%, 66.665649%)" stop-opacity="1"/>
<stop offset="0.109375" stop-color="rgb(99.215698%, 94.508362%, 66.665649%)" stop-opacity="1"/>
<stop offset="0.117188" stop-color="rgb(99.215698%, 94.508362%, 66.665649%)" stop-opacity="1"/>
<stop offset="0.121094" stop-color="rgb(99.21875%, 94.46106%, 66.296387%)" stop-opacity="1"/>
<stop offset="0.125" stop-color="rgb(99.223328%, 94.413757%, 65.92865%)" stop-opacity="1"/>
<stop offset="0.128906" stop-color="rgb(99.227905%, 94.364929%, 65.557861%)" stop-opacity="1"/>
<stop offset="0.132812" stop-color="rgb(99.232483%, 94.317627%, 65.187073%)" stop-opacity="1"/>
<stop offset="0.136719" stop-color="rgb(99.237061%, 94.268799%, 64.816284%)" stop-opacity="1"/>
<stop offset="0.140625" stop-color="rgb(99.241638%, 94.221497%, 64.447021%)" stop-opacity="1"/>
<stop offset="0.144531" stop-color="rgb(99.24469%, 94.172668%, 64.076233%)" stop-opacity="1"/>
<stop offset="0.148438" stop-color="rgb(99.249268%, 94.125366%, 63.70697%)" stop-opacity="1"/>
<stop offset="0.152344" stop-color="rgb(99.253845%, 94.078064%, 63.336182%)" stop-opacity="1"/>
<stop offset="0.15625" stop-color="rgb(99.258423%, 94.030762%, 62.966919%)" stop-opacity="1"/>
<stop offset="0.160156" stop-color="rgb(99.263%, 93.981934%, 62.59613%)" stop-opacity="1"/>
<stop offset="0.164062" stop-color="rgb(99.267578%, 93.934631%, 62.225342%)" stop-opacity="1"/>
<stop offset="0.167969" stop-color="rgb(99.27063%, 93.885803%, 61.854553%)" stop-opacity="1"/>
<stop offset="0.171875" stop-color="rgb(99.275208%, 93.838501%, 61.485291%)" stop-opacity="1"/>
<stop offset="0.175781" stop-color="rgb(99.279785%, 93.789673%, 61.114502%)" stop-opacity="1"/>
<stop offset="0.179687" stop-color="rgb(99.284363%, 93.742371%, 60.745239%)" stop-opacity="1"/>
<stop offset="0.183594" stop-color="rgb(99.28894%, 93.693542%, 60.374451%)" stop-opacity="1"/>
<stop offset="0.1875" stop-color="rgb(99.293518%, 93.64624%, 60.005188%)" stop-opacity="1"/>
<stop offset="0.191406" stop-color="rgb(99.298096%, 93.598938%, 59.634399%)" stop-opacity="1"/>
<stop offset="0.195313" stop-color="rgb(99.302673%, 93.551636%, 59.263611%)" stop-opacity="1"/>
<stop offset="0.199219" stop-color="rgb(99.305725%, 93.502808%, 58.892822%)" stop-opacity="1"/>
<stop offset="0.203125" stop-color="rgb(99.310303%, 93.455505%, 58.52356%)" stop-opacity="1"/>
<stop offset="0.207031" stop-color="rgb(99.31488%, 93.406677%, 58.152771%)" stop-opacity="1"/>
<stop offset="0.210937" stop-color="rgb(99.319458%, 93.359375%, 57.783508%)" stop-opacity="1"/>
<stop offset="0.214844" stop-color="rgb(99.324036%, 93.310547%, 57.41272%)" stop-opacity="1"/>
<stop offset="0.21875" stop-color="rgb(99.328613%, 93.263245%, 57.043457%)" stop-opacity="1"/>
<stop offset="0.222656" stop-color="rgb(99.331665%, 93.214417%, 56.672668%)" stop-opacity="1"/>
<stop offset="0.226563" stop-color="rgb(99.336243%, 93.167114%, 56.30188%)" stop-opacity="1"/>
<stop offset="0.230469" stop-color="rgb(99.34082%, 93.119812%, 55.931091%)" stop-opacity="1"/>
<stop offset="0.234375" stop-color="rgb(99.345398%, 93.07251%, 55.561829%)" stop-opacity="1"/>
<stop offset="0.238281" stop-color="rgb(99.349976%, 93.023682%, 55.19104%)" stop-opacity="1"/>
<stop offset="0.242187" stop-color="rgb(99.354553%, 92.976379%, 54.821777%)" stop-opacity="1"/>
<stop offset="0.246094" stop-color="rgb(99.359131%, 92.927551%, 54.450989%)" stop-opacity="1"/>
<stop offset="0.25" stop-color="rgb(99.363708%, 92.880249%, 54.0802%)" stop-opacity="1"/>
<stop offset="0.253906" stop-color="rgb(99.36676%, 92.831421%, 53.709412%)" stop-opacity="1"/>
<stop offset="0.257812" stop-color="rgb(99.371338%, 92.784119%, 53.340149%)" stop-opacity="1"/>
<stop offset="0.261719" stop-color="rgb(99.375916%, 92.736816%, 52.96936%)" stop-opacity="1"/>
<stop offset="0.265625" stop-color="rgb(99.380493%, 92.689514%, 52.600098%)" stop-opacity="1"/>
<stop offset="0.269531" stop-color="rgb(99.385071%, 92.640686%, 52.229309%)" stop-opacity="1"/>
<stop offset="0.273438" stop-color="rgb(99.389648%, 92.593384%, 51.860046%)" stop-opacity="1"/>
<stop offset="0.277344" stop-color="rgb(99.3927%, 92.544556%, 51.489258%)" stop-opacity="1"/>
<stop offset="0.28125" stop-color="rgb(99.397278%, 92.497253%, 51.118469%)" stop-opacity="1"/>
<stop offset="0.285156" stop-color="rgb(99.401855%, 92.448425%, 50.747681%)" stop-opacity="1"/>
<stop offset="0.289062" stop-color="rgb(99.406433%, 92.401123%, 50.378418%)" stop-opacity="1"/>
<stop offset="0.292969" stop-color="rgb(99.411011%, 92.352295%, 50.007629%)" stop-opacity="1"/>
<stop offset="0.296875" stop-color="rgb(99.415588%, 92.304993%, 49.638367%)" stop-opacity="1"/>
<stop offset="0.300781" stop-color="rgb(99.41864%, 92.25769%, 49.267578%)" stop-opacity="1"/>
<stop offset="0.304688" stop-color="rgb(99.423218%, 92.210388%, 48.898315%)" stop-opacity="1"/>
<stop offset="0.308594" stop-color="rgb(99.427795%, 92.16156%, 48.527527%)" stop-opacity="1"/>
<stop offset="0.3125" stop-color="rgb(99.432373%, 92.114258%, 48.156738%)" stop-opacity="1"/>
<stop offset="0.316406" stop-color="rgb(99.436951%, 92.06543%, 47.78595%)" stop-opacity="1"/>
<stop offset="0.320312" stop-color="rgb(99.441528%, 92.018127%, 47.416687%)" stop-opacity="1"/>
<stop offset="0.324219" stop-color="rgb(99.446106%, 91.969299%, 47.045898%)" stop-opacity="1"/>
<stop offset="0.328125" stop-color="rgb(99.450684%, 91.921997%, 46.676636%)" stop-opacity="1"/>
<stop offset="0.332031" stop-color="rgb(99.453735%, 91.873169%, 46.305847%)" stop-opacity="1"/>
<stop offset="0.335938" stop-color="rgb(99.458313%, 91.825867%, 45.936584%)" stop-opacity="1"/>
<stop offset="0.339844" stop-color="rgb(99.462891%, 91.778564%, 45.565796%)" stop-opacity="1"/>
<stop offset="0.34375" stop-color="rgb(99.467468%, 91.731262%, 45.195007%)" stop-opacity="1"/>
<stop offset="0.347656" stop-color="rgb(99.472046%, 91.682434%, 44.824219%)" stop-opacity="1"/>
<stop offset="0.351562" stop-color="rgb(99.476624%, 91.635132%, 44.454956%)" stop-opacity="1"/>
<stop offset="0.355469" stop-color="rgb(99.479675%, 91.586304%, 44.084167%)" stop-opacity="1"/>
<stop offset="0.359375" stop-color="rgb(99.484253%, 91.539001%, 43.714905%)" stop-opacity="1"/>
<stop offset="0.363281" stop-color="rgb(99.488831%, 91.490173%, 43.344116%)" stop-opacity="1"/>
<stop offset="0.367188" stop-color="rgb(99.493408%, 91.442871%, 42.974854%)" stop-opacity="1"/>
<stop offset="0.371094" stop-color="rgb(99.497986%, 91.394043%, 42.604065%)" stop-opacity="1"/>
<stop offset="0.375" stop-color="rgb(99.502563%, 91.346741%, 42.233276%)" stop-opacity="1"/>
<stop offset="0.378906" stop-color="rgb(99.507141%, 91.299438%, 41.862488%)" stop-opacity="1"/>
<stop offset="0.382812" stop-color="rgb(99.511719%, 91.252136%, 41.493225%)" stop-opacity="1"/>
<stop offset="0.386719" stop-color="rgb(99.514771%, 91.203308%, 41.122437%)" stop-opacity="1"/>
<stop offset="0.390625" stop-color="rgb(99.519348%, 91.156006%, 40.753174%)" stop-opacity="1"/>
<stop offset="0.394531" stop-color="rgb(99.523926%, 91.107178%, 40.382385%)" stop-opacity="1"/>
<stop offset="0.398438" stop-color="rgb(99.528503%, 91.059875%, 40.013123%)" stop-opacity="1"/>
<stop offset="0.402344" stop-color="rgb(99.533081%, 91.011047%, 39.642334%)" stop-opacity="1"/>
<stop offset="0.40625" stop-color="rgb(99.537659%, 90.963745%, 39.271545%)" stop-opacity="1"/>
<stop offset="0.410156" stop-color="rgb(99.54071%, 90.914917%, 38.900757%)" stop-opacity="1"/>
<stop offset="0.414062" stop-color="rgb(99.545288%, 90.867615%, 38.531494%)" stop-opacity="1"/>
<stop offset="0.417969" stop-color="rgb(99.549866%, 90.820312%, 38.160706%)" stop-opacity="1"/>
<stop offset="0.421875" stop-color="rgb(99.554443%, 90.77301%, 37.791443%)" stop-opacity="1"/>
<stop offset="0.425781" stop-color="rgb(99.559021%, 90.724182%, 37.420654%)" stop-opacity="1"/>
<stop offset="0.429688" stop-color="rgb(99.563599%, 90.67688%, 37.051392%)" stop-opacity="1"/>
<stop offset="0.433594" stop-color="rgb(99.568176%, 90.628052%, 36.680603%)" stop-opacity="1"/>
<stop offset="0.4375" stop-color="rgb(99.572754%, 90.58075%, 36.309814%)" stop-opacity="1"/>
<stop offset="0.441406" stop-color="rgb(99.575806%, 90.531921%, 35.939026%)" stop-opacity="1"/>
<stop offset="0.445312" stop-color="rgb(99.580383%, 90.484619%, 35.569763%)" stop-opacity="1"/>
<stop offset="0.449219" stop-color="rgb(99.584961%, 90.435791%, 35.198975%)" stop-opacity="1"/>
<stop offset="0.453125" stop-color="rgb(99.589539%, 90.388489%, 34.829712%)" stop-opacity="1"/>
<stop offset="0.457031" stop-color="rgb(99.594116%, 90.341187%, 34.458923%)" stop-opacity="1"/>
<stop offset="0.460938" stop-color="rgb(99.598694%, 90.293884%, 34.088135%)" stop-opacity="1"/>
<stop offset="0.464844" stop-color="rgb(99.601746%, 90.245056%, 33.717346%)" stop-opacity="1"/>
<stop offset="0.46875" stop-color="rgb(99.606323%, 90.197754%, 33.348083%)" stop-opacity="1"/>
<stop offset="0.472656" stop-color="rgb(99.610901%, 90.148926%, 32.977295%)" stop-opacity="1"/>
<stop offset="0.476562" stop-color="rgb(99.615479%, 90.101624%, 32.608032%)" stop-opacity="1"/>
<stop offset="0.480469" stop-color="rgb(99.620056%, 90.052795%, 32.237244%)" stop-opacity="1"/>
<stop offset="0.484375" stop-color="rgb(99.624634%, 90.005493%, 31.867981%)" stop-opacity="1"/>
<stop offset="0.488281" stop-color="rgb(99.629211%, 89.956665%, 31.497192%)" stop-opacity="1"/>
<stop offset="0.492188" stop-color="rgb(99.633789%, 89.909363%, 31.126404%)" stop-opacity="1"/>
<stop offset="0.496094" stop-color="rgb(99.636841%, 89.862061%, 30.755615%)" stop-opacity="1"/>
<stop offset="0.5" stop-color="rgb(99.641418%, 89.814758%, 30.386353%)" stop-opacity="1"/>
<stop offset="0.503906" stop-color="rgb(99.645996%, 89.76593%, 30.015564%)" stop-opacity="1"/>
<stop offset="0.507812" stop-color="rgb(99.650574%, 89.718628%, 29.646301%)" stop-opacity="1"/>
<stop offset="0.511719" stop-color="rgb(99.655151%, 89.6698%, 29.275513%)" stop-opacity="1"/>
<stop offset="0.515625" stop-color="rgb(99.659729%, 89.622498%, 28.90625%)" stop-opacity="1"/>
<stop offset="0.519531" stop-color="rgb(99.662781%, 89.573669%, 28.535461%)" stop-opacity="1"/>
<stop offset="0.523438" stop-color="rgb(99.667358%, 89.526367%, 28.164673%)" stop-opacity="1"/>
<stop offset="0.527344" stop-color="rgb(99.671936%, 89.477539%, 27.793884%)" stop-opacity="1"/>
<stop offset="0.53125" stop-color="rgb(99.676514%, 89.430237%, 27.424622%)" stop-opacity="1"/>
<stop offset="0.535156" stop-color="rgb(99.681091%, 89.382935%, 27.053833%)" stop-opacity="1"/>
<stop offset="0.539062" stop-color="rgb(99.685669%, 89.335632%, 26.68457%)" stop-opacity="1"/>
<stop offset="0.542969" stop-color="rgb(99.688721%, 89.286804%, 26.313782%)" stop-opacity="1"/>
<stop offset="0.546875" stop-color="rgb(99.693298%, 89.239502%, 25.944519%)" stop-opacity="1"/>
<stop offset="0.550781" stop-color="rgb(99.697876%, 89.190674%, 25.57373%)" stop-opacity="1"/>
<stop offset="0.554688" stop-color="rgb(99.702454%, 89.143372%, 25.202942%)" stop-opacity="1"/>
<stop offset="0.558594" stop-color="rgb(99.707031%, 89.094543%, 24.832153%)" stop-opacity="1"/>
<stop offset="0.5625" stop-color="rgb(99.711609%, 89.047241%, 24.462891%)" stop-opacity="1"/>
<stop offset="0.566406" stop-color="rgb(99.716187%, 88.998413%, 24.092102%)" stop-opacity="1"/>
<stop offset="0.570312" stop-color="rgb(99.720764%, 88.951111%, 23.722839%)" stop-opacity="1"/>
<stop offset="0.574219" stop-color="rgb(99.723816%, 88.903809%, 23.352051%)" stop-opacity="1"/>
<stop offset="0.578125" stop-color="rgb(99.728394%, 88.856506%, 22.982788%)" stop-opacity="1"/>
<stop offset="0.582031" stop-color="rgb(99.732971%, 88.807678%, 22.612%)" stop-opacity="1"/>
<stop offset="0.585938" stop-color="rgb(99.737549%, 88.760376%, 22.241211%)" stop-opacity="1"/>
<stop offset="0.589844" stop-color="rgb(99.742126%, 88.711548%, 21.870422%)" stop-opacity="1"/>
<stop offset="0.59375" stop-color="rgb(99.746704%, 88.664246%, 21.50116%)" stop-opacity="1"/>
<stop offset="0.597656" stop-color="rgb(99.749756%, 88.615417%, 21.130371%)" stop-opacity="1"/>
<stop offset="0.601562" stop-color="rgb(99.754333%, 88.568115%, 20.761108%)" stop-opacity="1"/>
<stop offset="0.605469" stop-color="rgb(99.758911%, 88.519287%, 20.39032%)" stop-opacity="1"/>
<stop offset="0.609375" stop-color="rgb(99.763489%, 88.471985%, 20.021057%)" stop-opacity="1"/>
<stop offset="0.613281" stop-color="rgb(99.768066%, 88.424683%, 19.650269%)" stop-opacity="1"/>
<stop offset="0.617188" stop-color="rgb(99.772644%, 88.37738%, 19.27948%)" stop-opacity="1"/>
<stop offset="0.621094" stop-color="rgb(99.777222%, 88.328552%, 18.908691%)" stop-opacity="1"/>
<stop offset="0.625" stop-color="rgb(99.781799%, 88.28125%, 18.539429%)" stop-opacity="1"/>
<stop offset="0.628906" stop-color="rgb(99.784851%, 88.232422%, 18.16864%)" stop-opacity="1"/>
<stop offset="0.632812" stop-color="rgb(99.789429%, 88.18512%, 17.799377%)" stop-opacity="1"/>
<stop offset="0.636719" stop-color="rgb(99.794006%, 88.136292%, 17.428589%)" stop-opacity="1"/>
<stop offset="0.640625" stop-color="rgb(99.798584%, 88.088989%, 17.059326%)" stop-opacity="1"/>
<stop offset="0.644531" stop-color="rgb(99.803162%, 88.040161%, 16.688538%)" stop-opacity="1"/>
<stop offset="0.648438" stop-color="rgb(99.807739%, 87.992859%, 16.317749%)" stop-opacity="1"/>
<stop offset="0.652344" stop-color="rgb(99.810791%, 87.945557%, 15.94696%)" stop-opacity="1"/>
<stop offset="0.65625" stop-color="rgb(99.815369%, 87.898254%, 15.577698%)" stop-opacity="1"/>
<stop offset="0.660156" stop-color="rgb(99.819946%, 87.849426%, 15.206909%)" stop-opacity="1"/>
<stop offset="0.664062" stop-color="rgb(99.824524%, 87.802124%, 14.837646%)" stop-opacity="1"/>
<stop offset="0.667969" stop-color="rgb(99.829102%, 87.753296%, 14.466858%)" stop-opacity="1"/>
<stop offset="0.671875" stop-color="rgb(99.833679%, 87.705994%, 14.096069%)" stop-opacity="1"/>
<stop offset="0.675781" stop-color="rgb(99.838257%, 87.657166%, 13.725281%)" stop-opacity="1"/>
<stop offset="0.679688" stop-color="rgb(99.842834%, 87.609863%, 13.356018%)" stop-opacity="1"/>
<stop offset="0.683594" stop-color="rgb(99.845886%, 87.561035%, 12.985229%)" stop-opacity="1"/>
<stop offset="0.6875" stop-color="rgb(99.850464%, 87.513733%, 12.615967%)" stop-opacity="1"/>
<stop offset="0.691406" stop-color="rgb(99.855042%, 87.466431%, 12.245178%)" stop-opacity="1"/>
<stop offset="0.695312" stop-color="rgb(99.859619%, 87.419128%, 11.875916%)" stop-opacity="1"/>
<stop offset="0.699219" stop-color="rgb(99.864197%, 87.3703%, 11.505127%)" stop-opacity="1"/>
<stop offset="0.703125" stop-color="rgb(99.868774%, 87.322998%, 11.134338%)" stop-opacity="1"/>
<stop offset="0.707031" stop-color="rgb(99.871826%, 87.27417%, 10.76355%)" stop-opacity="1"/>
<stop offset="0.710938" stop-color="rgb(99.876404%, 87.226868%, 10.394287%)" stop-opacity="1"/>
<stop offset="0.714844" stop-color="rgb(99.880981%, 87.17804%, 10.023499%)" stop-opacity="1"/>
<stop offset="0.71875" stop-color="rgb(99.885559%, 87.130737%, 9.654236%)" stop-opacity="1"/>
<stop offset="0.722656" stop-color="rgb(99.890137%, 87.081909%, 9.283447%)" stop-opacity="1"/>
<stop offset="0.726562" stop-color="rgb(99.894714%, 87.034607%, 8.914185%)" stop-opacity="1"/>
<stop offset="0.730469" stop-color="rgb(99.897766%, 86.987305%, 8.543396%)" stop-opacity="1"/>
<stop offset="0.734375" stop-color="rgb(99.902344%, 86.940002%, 8.172607%)" stop-opacity="1"/>
<stop offset="0.738281" stop-color="rgb(99.906921%, 86.891174%, 7.801819%)" stop-opacity="1"/>
<stop offset="0.742188" stop-color="rgb(99.911499%, 86.843872%, 7.432556%)" stop-opacity="1"/>
<stop offset="0.746094" stop-color="rgb(99.916077%, 86.795044%, 7.061768%)" stop-opacity="1"/>
<stop offset="0.75" stop-color="rgb(99.920654%, 86.747742%, 6.692505%)" stop-opacity="1"/>
<stop offset="0.753906" stop-color="rgb(99.925232%, 86.698914%, 6.321716%)" stop-opacity="1"/>
<stop offset="0.757812" stop-color="rgb(99.92981%, 86.651611%, 5.952454%)" stop-opacity="1"/>
<stop offset="0.761719" stop-color="rgb(99.932861%, 86.602783%, 5.581665%)" stop-opacity="1"/>
<stop offset="0.765625" stop-color="rgb(99.937439%, 86.555481%, 5.210876%)" stop-opacity="1"/>
<stop offset="0.769531" stop-color="rgb(99.942017%, 86.508179%, 4.840088%)" stop-opacity="1"/>
<stop offset="0.773438" stop-color="rgb(99.946594%, 86.460876%, 4.470825%)" stop-opacity="1"/>
<stop offset="0.777344" stop-color="rgb(99.951172%, 86.412048%, 4.100037%)" stop-opacity="1"/>
<stop offset="0.78125" stop-color="rgb(99.95575%, 86.364746%, 3.730774%)" stop-opacity="1"/>
<stop offset="0.785156" stop-color="rgb(99.958801%, 86.315918%, 3.359985%)" stop-opacity="1"/>
<stop offset="0.789062" stop-color="rgb(99.963379%, 86.268616%, 2.990723%)" stop-opacity="1"/>
<stop offset="0.792969" stop-color="rgb(99.967957%, 86.219788%, 2.619934%)" stop-opacity="1"/>
<stop offset="0.796875" stop-color="rgb(99.972534%, 86.172485%, 2.249146%)" stop-opacity="1"/>
<stop offset="0.800781" stop-color="rgb(99.977112%, 86.123657%, 1.878357%)" stop-opacity="1"/>
<stop offset="0.804687" stop-color="rgb(99.981689%, 86.076355%, 1.509094%)" stop-opacity="1"/>
<stop offset="0.808594" stop-color="rgb(99.986267%, 86.029053%, 1.138306%)" stop-opacity="1"/>
<stop offset="0.8125" stop-color="rgb(99.990845%, 85.98175%, 0.769043%)" stop-opacity="1"/>
<stop offset="0.816406" stop-color="rgb(99.993896%, 85.932922%, 0.398254%)" stop-opacity="1"/>
<stop offset="0.820313" stop-color="rgb(99.998474%, 85.88562%, 0.0289917%)" stop-opacity="1"/>
<stop offset="0.828125" stop-color="rgb(99.998474%, 85.882568%, 0.0137329%)" stop-opacity="1"/>
<stop offset="0.84375" stop-color="rgb(100%, 85.881042%, 0%)" stop-opacity="1"/>
<stop offset="0.875" stop-color="rgb(100%, 85.881042%, 0%)" stop-opacity="1"/>
<stop offset="1" stop-color="rgb(100%, 85.881042%, 0%)" stop-opacity="1"/>
</linearGradient>
</defs>
<rect x="-400" y="-400" width="4800" height="4800" fill="rgb(100%, 100%, 100%)" fill-opacity="1"/>
<path fill-rule="nonzero" fill="rgb(97.65625%, 68.554688%, 51.367188%)" fill-opacity="1" d="M 2793.660156 3082.140625 C 2617.738281 3081.058594 2391.101562 2996.601562 2177.199219 2740.488281 C 1963.28125 2484.339844 1869.058594 2128.089844 1917.121094 1708.679688 C 1970.351562 1244.28125 2269.660156 885.609375 2523.671875 736.03125 C 2674.210938 647.390625 2793.660156 650.230469 2793.660156 650.230469 C 2794.460938 650.21875 2913.109375 647.390625 3063.648438 736.03125 C 3317.660156 885.609375 3616.96875 1244.28125 3670.199219 1708.679688 C 3718.269531 2128.089844 3624.039062 2484.339844 3410.109375 2740.488281 C 3196.21875 2996.601562 2978.738281 3083.25 2793.660156 3082.140625 "/>
<g clip-path="url(#clip-0)">
<g clip-path="url(#clip-1)">
<g clip-path="url(#clip-2)">
<path fill-rule="nonzero" fill="url(#linear-pattern-0)" d="M 3015.132812 118.601562 L 4299.476562 1248.910156 L 3154.347656 2550.089844 L 1870.003906 1419.78125 Z M 3015.132812 118.601562 "/>
</g>
</g>
</g>
<path fill-rule="nonzero" fill="rgb(98.826599%, 83.201599%, 73.631287%)" fill-opacity="1" d="M 3037.761719 990.820312 C 3084.25 960.441406 3149.601562 978.128906 3183.71875 1030.351562 C 3217.839844 1082.558594 3207.808594 1149.519531 3161.308594 1179.898438 C 3114.820312 1210.28125 3049.46875 1192.589844 3015.351562 1140.371094 C 2981.230469 1088.160156 2991.261719 1021.199219 3037.761719 990.820312 "/>
<path fill-rule="nonzero" fill="rgb(94.921875%, 64.256287%, 45.872498%)" fill-opacity="1" d="M 3588.96875 2438.371094 C 3544.46875 2550.148438 3484.539062 2651.371094 3410.121094 2740.480469 C 3196.21875 2996.609375 2978.738281 3083.25 2793.660156 3082.128906 C 2617.738281 3081.070312 2391.101562 2996.609375 2177.210938 2740.480469 C 1963.28125 2484.328125 1869.050781 2128.101562 1917.121094 1708.691406 C 1970.351562 1244.28125 2269.648438 885.609375 2523.671875 736.03125 C 2542.050781 725.210938 2559.980469 715.75 2577.269531 707.480469 C 2399.539062 917.320312 2382.878906 1392.078125 2571.609375 1772.609375 C 2657.558594 1945.910156 2829.578125 2165.578125 3053.769531 2285.269531 C 3363.710938 2450.75 3592.808594 2428.710938 3588.96875 2438.371094 "/>
<path fill-rule="nonzero" fill="rgb(87.889099%, 59.568787%, 42.358398%)" fill-opacity="1" d="M 2035.140625 2521.28125 C 1923.941406 2295.011719 1881.539062 2019.148438 1917.121094 1708.691406 C 1946.691406 1450.769531 2052.148438 1225.449219 2183.609375 1050.460938 C 2081.96875 1222 2077.300781 1577.410156 2125.148438 1662.320312 C 2125.148438 1662.320312 2353.261719 1784.589844 2482.738281 1941.960938 C 2678.578125 2179.988281 2669.488281 2345.101562 2669.488281 2345.101562 C 2721.78125 2500.609375 2499.949219 2677.71875 2569.601562 2685.648438 L 2613.03125 2751.71875 C 2613.03125 2751.71875 2838.539062 3008.828125 3283.101562 2873.160156 C 3111.488281 3027.441406 2942.148438 3083.03125 2793.660156 3082.128906 C 2700.308594 3081.570312 2592.691406 3057.519531 2480.269531 2996.808594 C 2346.738281 2860.511719 2183.578125 2689.449219 2035.140625 2521.28125 "/>
<path fill-rule="nonzero" fill="rgb(97.65625%, 68.554688%, 51.367188%)" fill-opacity="1" d="M 2640.660156 2417.949219 C 2639.640625 2586 2558.949219 2802.5 2314.289062 3006.839844 C 2069.601562 3211.191406 1729.289062 3301.199219 1328.640625 3255.28125 C 885.007812 3204.441406 542.378906 2918.511719 399.492188 2675.871094 C 314.8125 2532.058594 317.523438 2417.949219 317.523438 2417.949219 C 317.511719 2417.191406 314.8125 2303.839844 399.492188 2160.03125 C 542.378906 1917.378906 885.007812 1631.460938 1328.640625 1580.609375 C 1729.289062 1534.691406 2069.601562 1624.710938 2314.289062 1829.070312 C 2558.949219 2033.390625 2641.730469 2241.140625 2640.660156 2417.949219 "/>
<g clip-path="url(#clip-3)">
<g clip-path="url(#clip-4)">
<g clip-path="url(#clip-5)">
<path fill-rule="nonzero" fill="url(#linear-pattern-1)" d="M 767.25 1386.976562 L 2454.59375 1570.039062 L 2359.96875 2442.234375 L 672.625 2259.171875 Z M 767.25 1386.976562 "/>
</g>
</g>
</g>
<path fill-rule="nonzero" fill="rgb(98.826599%, 83.201599%, 73.631287%)" fill-opacity="1" d="M 1659.949219 1738.050781 C 1673.109375 1690.398438 1728.359375 1664.078125 1783.371094 1679.261719 C 1838.371094 1694.449219 1872.300781 1745.378906 1859.148438 1793.03125 C 1846 1840.679688 1790.75 1867 1735.738281 1851.820312 C 1680.730469 1836.640625 1646.800781 1785.699219 1659.949219 1738.050781 "/>
<path fill-rule="nonzero" fill="rgb(94.921875%, 64.256287%, 45.872498%)" fill-opacity="1" d="M 2627.210938 2291.761719 C 2636.738281 2335.171875 2640.910156 2377.378906 2640.660156 2417.941406 C 2639.640625 2586 2558.960938 2802.5 2314.289062 3006.828125 C 2069.601562 3211.179688 1729.289062 3301.191406 1328.640625 3255.28125 C 885.007812 3204.429688 542.378906 2918.511719 399.488281 2675.859375 C 314.8125 2532.058594 317.523438 2417.941406 317.523438 2417.941406 C 317.511719 2417.179688 314.8125 2303.828125 399.488281 2160.019531 C 400.78125 2157.828125 402.089844 2155.640625 403.414062 2153.441406 C 371.4375 2234.609375 377.058594 2321.179688 395.347656 2387.320312 C 425.46875 2496.25 492.152344 2562.941406 580.699219 2631.191406 C 821.511719 2816.789062 1255 2927.140625 1689.738281 2954.121094 C 2104.96875 2979.898438 2210.679688 2790.601562 2429.28125 2569.070312 C 2524.949219 2472.121094 2588.269531 2378.609375 2627.210938 2291.761719 "/>
<path fill-rule="nonzero" fill="rgb(87.889099%, 59.568787%, 42.358398%)" fill-opacity="1" d="M 1425.230469 3263.808594 C 1393.449219 3261.859375 1361.238281 3259.03125 1328.648438 3255.28125 C 1068.460938 3225.460938 843.003906 3114.78125 672.21875 2979.390625 C 769.871094 3037.300781 1022.058594 3136.890625 1314.75 3131.339844 C 1226.699219 3011.898438 1091.589844 2798.171875 1041.949219 2517.988281 C 1011.148438 2344.171875 1048.929688 2290.308594 1048.929688 2290.308594 C 1048.929688 2290.308594 1226.140625 2398.25 1414.371094 2648.890625 C 1490.089844 2749.730469 1559.398438 2882.21875 1615.199219 3004.570312 C 1659.378906 3101.441406 1695.089844 3191.949219 1718.808594 3255.351562 C 1713.511719 3256.019531 1708.199219 3256.660156 1702.878906 3257.269531 C 1614.550781 3267.441406 1521.828125 3269.730469 1425.230469 3263.808594 "/>
<path fill-rule="nonzero" fill="rgb(97.65625%, 68.554688%, 51.367188%)" fill-opacity="1" d="M 2946 2233.058594 C 2947.789062 2233.679688 2949.480469 2234.269531 2951.070312 2234.820312 C 2927.28125 2529.238281 2828.148438 2782.859375 2662.679688 2981 C 2431.800781 3257.449219 2197.058594 3350.980469 1997.28125 3349.769531 C 1807.390625 3348.621094 1562.769531 3257.449219 1331.890625 2981 C 1176.910156 2795.421875 1080.128906 2561.171875 1048.929688 2290.308594 C 1060.128906 2281.839844 1071.289062 2274.621094 1076.988281 2274.359375 C 1090.96875 2273.710938 1093.910156 2261.109375 1116.820312 2239.191406 C 1139.738281 2217.269531 1253.539062 2136.75 1253.539062 2136.75 C 1253.539062 2136.75 1294.03125 2151.628906 1319.058594 2156.359375 C 1344.078125 2161.089844 1337.25 2169.269531 1387.320312 2163.898438 C 1437.371094 2158.519531 1488.160156 2135.429688 1488.160156 2135.429688 C 1488.160156 2135.429688 1567.019531 2154.578125 1611.300781 2175.78125 C 1655.589844 2196.96875 1699.960938 2195.839844 1723.011719 2186.550781 C 1746.058594 2177.269531 1750.699219 2156.238281 1790.570312 2158.890625 C 1835.828125 2161.910156 1873.949219 2165.789062 1882.128906 2166.621094 C 1890.300781 2167.449219 1923.191406 2136.578125 1923.191406 2136.578125 C 1923.191406 2136.578125 1979.988281 2175.78125 1992.738281 2185.371094 C 2005.488281 2194.949219 2189.988281 2311.171875 2208.449219 2311.851562 C 2226.910156 2312.519531 2266.890625 2248.351562 2286.949219 2240.960938 C 2307.011719 2233.550781 2369.398438 2229.160156 2388.429688 2231.171875 C 2407.449219 2233.171875 2427.648438 2226.148438 2446.25 2208.121094 C 2464.839844 2190.078125 2524.390625 2164.859375 2524.390625 2164.859375 L 2637.230469 2237.101562 C 2637.230469 2237.101562 2722.828125 2202.179688 2752.21875 2190.28125 C 2794.460938 2173.179688 2808.339844 2175.371094 2839.949219 2191.75 C 2862.390625 2203.378906 2916.511719 2222.78125 2946 2233.058594 "/>
<path fill-rule="nonzero" fill="rgb(97.264099%, 74.414062%, 61.131287%)" fill-opacity="1" d="M 2882.851562 2210.050781 C 2905.011719 2218.601562 2929.398438 2227.28125 2946 2233.058594 C 2947.78125 2233.679688 2949.480469 2234.269531 2951.070312 2234.820312 C 2927.269531 2529.238281 2828.148438 2782.859375 2662.691406 2981 C 2502.230469 3173.121094 2339.921875 3276.898438 2188.769531 3321.921875 C 2261.269531 3291.351562 2363.449219 3228.769531 2438.539062 3155.300781 C 2561.820312 3034.671875 2640.828125 2905.378906 2698.730469 2796.140625 C 2732.660156 2732.128906 2770.230469 2649.929688 2792.539062 2599.179688 C 2800.089844 2582.019531 2800.828125 2566.089844 2806.710938 2551.921875 C 2832.289062 2490.191406 2848.480469 2457.539062 2848.480469 2457.539062 C 2848.480469 2457.539062 2670.710938 2546.511719 2707.171875 2460.640625 C 2733.179688 2399.378906 2803.238281 2290.070312 2882.851562 2210.050781 "/>
<path fill-rule="nonzero" fill="rgb(100%, 95.701599%, 92.96875%)" fill-opacity="1" d="M 1048.929688 2290.308594 C 1060.128906 2281.839844 1071.289062 2274.621094 1076.988281 2274.359375 C 1090.96875 2273.710938 1093.910156 2261.109375 1116.820312 2239.191406 C 1139.738281 2217.269531 1253.539062 2136.75 1253.539062 2136.75 C 1253.539062 2136.75 1294.03125 2151.628906 1319.058594 2156.359375 C 1344.078125 2161.089844 1337.25 2169.269531 1387.320312 2163.898438 C 1437.371094 2158.519531 1488.160156 2135.429688 1488.160156 2135.429688 C 1488.160156 2135.429688 1567.019531 2154.578125 1611.300781 2175.78125 C 1655.589844 2196.96875 1699.960938 2195.839844 1723.011719 2186.550781 C 1746.058594 2177.269531 1750.699219 2156.238281 1790.570312 2158.890625 C 1835.828125 2161.910156 1873.949219 2165.789062 1882.128906 2166.621094 C 1890.300781 2167.449219 1923.191406 2136.578125 1923.191406 2136.578125 C 1923.191406 2136.578125 1979.988281 2175.78125 1992.738281 2185.371094 C 2005.488281 2194.949219 2189.988281 2311.171875 2208.449219 2311.851562 C 2226.910156 2312.519531 2266.890625 2248.351562 2286.949219 2240.960938 C 2307.011719 2233.550781 2369.398438 2229.160156 2388.429688 2231.171875 C 2407.449219 2233.171875 2427.648438 2226.148438 2446.25 2208.121094 C 2464.839844 2190.078125 2524.390625 2164.859375 2524.390625 2164.859375 L 2637.230469 2237.101562 C 2637.230469 2237.101562 2722.828125 2202.179688 2752.21875 2190.28125 C 2794.460938 2173.179688 2808.339844 2175.371094 2839.949219 2191.75 C 2862.390625 2203.378906 2921.578125 2224.550781 2951.070312 2234.820312 C 2945.621094 2278.28125 2934.5 2322.429688 2921.058594 2363.109375 C 2914.25 2383.738281 2893.851562 2435.730469 2850.578125 2473.351562 C 2840.609375 2482.019531 2792.550781 2599.179688 2792.550781 2599.179688 C 2792.550781 2599.179688 2701.679688 2675.050781 2689.421875 2684.050781 C 2677.179688 2693.058594 2600.78125 2726.308594 2583.730469 2743.871094 C 2566.679688 2761.410156 2555.078125 2833.449219 2556.449219 2871.308594 C 2557.828125 2909.171875 2477.851562 2979.058594 2477.851562 2979.058594 L 2387.710938 2947.070312 C 2387.710938 2947.070312 2311.238281 3016.308594 2290.988281 3014.230469 C 2270.738281 3012.160156 2215 3022.128906 2215 3022.128906 L 2158.578125 2983.488281 C 2158.578125 2983.488281 1950.410156 3081.089844 1925.238281 3093.519531 C 1900.070312 3105.96875 1814.78125 3058.578125 1803.140625 3043.171875 C 1791.5 3027.738281 1658.789062 3002.828125 1658.789062 3002.828125 C 1658.789062 3002.828125 1584.03125 3007.238281 1566.359375 3001.96875 C 1548.691406 2996.710938 1498.519531 2963.589844 1476.191406 2914.121094 C 1459.808594 2877.808594 1393.410156 2873.371094 1377.820312 2866.691406 C 1362.21875 2860 1332.199219 2773.140625 1332.199219 2773.140625 C 1332.199219 2773.140625 1295.96875 2775.46875 1267.398438 2770.398438 C 1257 2768.550781 1245.050781 2765.328125 1242.910156 2754.429688 C 1234.890625 2713.601562 1193.191406 2668.53125 1180.769531 2617 C 1167.171875 2560.601562 1146.140625 2505.191406 1146.140625 2505.191406 C 1150.429688 2435.199219 1107.449219 2421.371094 1085.941406 2382.601562 C 1070.691406 2355.140625 1057.609375 2317.421875 1048.929688 2290.308594 "/>
<path fill-rule="nonzero" fill="rgb(91.796875%, 87.5%, 84.764099%)" fill-opacity="1" d="M 2064.390625 3027.710938 C 2005.699219 3055.300781 1938.828125 3086.808594 1925.25 3093.519531 C 1900.070312 3105.96875 1814.78125 3058.578125 1803.140625 3043.171875 C 1791.5 3027.738281 1658.789062 3002.828125 1658.789062 3002.828125 C 1658.789062 3002.828125 1584.039062 3007.238281 1566.371094 3001.96875 C 1548.699219 2996.710938 1498.519531 2963.589844 1476.199219 2914.121094 C 1459.820312 2877.808594 1393.410156 2873.371094 1377.808594 2866.691406 C 1362.21875 2860 1332.210938 2773.140625 1332.210938 2773.140625 C 1332.210938 2773.140625 1295.960938 2775.46875 1267.398438 2770.398438 C 1257 2768.550781 1245.050781 2765.328125 1242.910156 2754.429688 C 1234.898438 2713.601562 1193.191406 2668.53125 1180.769531 2617 C 1167.171875 2560.601562 1146.148438 2505.191406 1146.148438 2505.191406 C 1146.148438 2505.148438 1146.148438 2505.109375 1146.160156 2505.058594 C 1148.839844 2510.839844 1163.839844 2543.269531 1175.820312 2573.609375 C 1189.03125 2607.058594 1194.691406 2620.898438 1208.019531 2642.328125 C 1217.941406 2658.300781 1248.300781 2706.949219 1261.578125 2734.390625 C 1265.441406 2742.351562 1274.148438 2744.449219 1283.488281 2744.898438 C 1308.820312 2746.109375 1372 2746.21875 1372 2746.21875 C 1372 2746.21875 1528.828125 2658.210938 1707.558594 2620.078125 C 1905.601562 2577.820312 2104.800781 2623.851562 2104.800781 2623.851562 C 2104.800781 2623.851562 2107.960938 2835.300781 2064.390625 3027.710938 "/>
<path fill-rule="nonzero" fill="rgb(100%, 95.701599%, 92.96875%)" fill-opacity="1" d="M 1378.769531 2867.070312 C 1378.429688 2866.941406 1378.109375 2866.820312 1377.808594 2866.691406 C 1362.21875 2860 1332.210938 2773.140625 1332.210938 2773.140625 C 1332.210938 2773.140625 1295.960938 2775.46875 1267.398438 2770.398438 C 1257 2768.550781 1245.050781 2765.328125 1242.910156 2754.429688 C 1234.898438 2713.601562 1193.191406 2668.53125 1180.769531 2617 C 1167.171875 2560.601562 1146.148438 2505.191406 1146.148438 2505.191406 C 1146.148438 2505.148438 1146.148438 2505.109375 1146.160156 2505.058594 C 1148.289062 2509.648438 1158.230469 2531.140625 1168.25 2555.03125 C 1176.949219 2584.640625 1186.589844 2620.351562 1193.121094 2638.261719 C 1200.039062 2657.238281 1235.46875 2716.109375 1239.398438 2724.25 C 1243.339844 2732.390625 1250.679688 2754.929688 1255.898438 2758.21875 C 1267.390625 2765.480469 1296.21875 2769.238281 1315.808594 2768.671875 C 1327.078125 2768.339844 1336.320312 2768.609375 1336.320312 2768.609375 C 1336.320312 2768.609375 1357.910156 2823.878906 1364.410156 2836.441406 C 1370.898438 2849 1379.960938 2861.308594 1379.960938 2861.308594 L 1378.769531 2867.070312 "/>
<path fill-rule="nonzero" fill="rgb(100%, 85.9375%, 0%)" fill-opacity="1" d="M 1376.160156 2865.71875 C 1483.039062 2714.710938 1719.96875 2609.589844 1994.808594 2609.589844 C 2231.738281 2609.589844 2440.5 2687.71875 2562.058594 2806.019531 C 2557.929688 2829.261719 2555.820312 2853.898438 2556.449219 2871.308594 C 2557.828125 2909.160156 2477.851562 2979.058594 2477.851562 2979.058594 L 2387.710938 2947.070312 C 2387.710938 2947.070312 2311.238281 3016.308594 2290.988281 3014.230469 C 2270.738281 3012.160156 2215 3022.140625 2215 3022.140625 L 2158.578125 2983.488281 C 2158.578125 2983.488281 1950.421875 3081.078125 1925.25 3093.519531 C 1900.070312 3105.96875 1814.78125 3058.578125 1803.140625 3043.160156 C 1791.5 3027.738281 1658.789062 3002.828125 1658.789062 3002.828125 C 1658.789062 3002.828125 1584.03125 3007.238281 1566.371094 3001.96875 C 1548.691406 2996.710938 1498.519531 2963.589844 1476.199219 2914.121094 C 1459.820312 2877.808594 1393.410156 2873.371094 1377.820312 2866.691406 C 1377.28125 2866.460938 1376.730469 2866.128906 1376.160156 2865.71875 "/>
<path fill-rule="nonzero" fill="rgb(94.53125%, 82.03125%, 5.488586%)" fill-opacity="1" d="M 2139.890625 2992.261719 C 2088.210938 3016.511719 1945.789062 3083.371094 1925.25 3093.519531 C 1900.070312 3105.96875 1814.78125 3058.578125 1803.140625 3043.171875 C 1791.5 3027.738281 1658.789062 3002.828125 1658.789062 3002.828125 C 1658.789062 3002.828125 1584.039062 3007.238281 1566.371094 3001.96875 C 1548.699219 2996.710938 1498.519531 2963.589844 1476.199219 2914.121094 C 1459.820312 2877.808594 1393.410156 2873.371094 1377.808594 2866.691406 C 1377.28125 2866.460938 1376.730469 2866.140625 1376.171875 2865.71875 C 1383.289062 2855.660156 1390.988281 2845.789062 1399.25 2836.148438 C 1423.421875 2840.699219 1464.328125 2850.128906 1474.058594 2863.210938 C 1488.101562 2882.070312 1556.21875 2959.941406 1567.96875 2966.148438 C 1579.710938 2972.359375 1663.929688 2973.75 1680.640625 2980.089844 C 1697.351562 2986.429688 1792.28125 2997.398438 1818.769531 3027.761719 C 1849.25 3062.710938 1901.171875 3077.820312 1916.390625 3077.058594 C 1931.609375 3076.308594 2140.121094 2988.929688 2140.121094 2988.929688 C 2140.121094 2988.929688 2140.050781 2990.109375 2139.890625 2992.261719 "/>
<path fill-rule="nonzero" fill="rgb(100%, 95.701599%, 92.96875%)" fill-opacity="1" d="M 1658.789062 3002.828125 C 1658.789062 3002.828125 1584.039062 3007.238281 1566.371094 3001.96875 C 1548.699219 2996.710938 1498.519531 2963.589844 1476.199219 2914.121094 C 1459.820312 2877.808594 1393.410156 2873.371094 1377.808594 2866.691406 C 1377.28125 2866.460938 1376.730469 2866.140625 1376.171875 2865.71875 C 1377.109375 2864.390625 1378.058594 2863.070312 1379.03125 2861.738281 C 1382.78125 2862.570312 1386.378906 2863.898438 1388.710938 2864.019531 C 1396.339844 2864.410156 1443.53125 2874.648438 1463.171875 2888.179688 C 1473.070312 2895.011719 1477.539062 2902.351562 1481.078125 2908.230469 C 1485.828125 2916.101562 1487.71875 2920.480469 1490.960938 2926.730469 C 1495.390625 2935.25 1514 2956.359375 1525.179688 2967.238281 C 1536.371094 2978.109375 1559.238281 2992.910156 1571.558594 2996.648438 C 1583.140625 3000.171875 1648.660156 2993.390625 1658.460938 2994.601562 C 1669.199219 2995.929688 1688.460938 3000.890625 1709.011719 3005.378906 C 1729.570312 3009.878906 1796.070312 3023.378906 1806.660156 3033.621094 C 1814.601562 3041.289062 1838.511719 3064.851562 1867 3074.011719 C 1885.050781 3079.820312 1910.300781 3092.269531 1921.949219 3086.039062 C 1937.351562 3077.800781 2156.710938 2972.761719 2156.710938 2972.761719 L 2216.558594 3013.808594 C 2216.558594 3013.808594 2257.769531 3009.140625 2268.558594 3008.460938 C 2279.480469 3007.789062 2284.738281 3008.230469 2291.988281 3007.519531 C 2308.441406 3005.929688 2386.421875 2939.308594 2386.421875 2939.308594 L 2475.449219 2969.601562 C 2475.449219 2969.601562 2518.601562 2930.96875 2529.53125 2914.449219 C 2541.648438 2896.148438 2549.210938 2877.128906 2549.730469 2864.078125 C 2550.191406 2852.589844 2555.78125 2820 2559.890625 2803.929688 C 2560.621094 2804.621094 2561.328125 2805.320312 2562.050781 2806.019531 C 2557.929688 2829.269531 2555.820312 2853.910156 2556.460938 2871.308594 C 2557.828125 2909.171875 2477.859375 2979.058594 2477.859375 2979.058594 L 2387.71875 2947.070312 C 2387.71875 2947.070312 2311.25 3016.308594 2290.988281 3014.230469 C 2270.738281 3012.160156 2215 3022.128906 2215 3022.128906 L 2158.578125 2983.488281 C 2158.578125 2983.488281 1950.421875 3081.089844 1925.25 3093.519531 C 1900.789062 3105.609375 1819.628906 3061.25 1804.320312 3044.570312 C 1803.890625 3044.03125 1803.5 3043.558594 1803.140625 3043.171875 C 1789.378906 3027.71875 1658.789062 3002.828125 1658.789062 3002.828125 "/>
<g clip-path="url(#clip-6)">
<g clip-path="url(#clip-7)">
<g clip-path="url(#clip-8)">
<path fill-rule="nonzero" fill="url(#linear-pattern-2)" d="M 1812.023438 2618.644531 L 2323.460938 2662.992188 L 2299.785156 2936.042969 L 1788.347656 2891.699219 Z M 1812.023438 2618.644531 "/>
</g>
</g>
</g>
<path fill-rule="nonzero" fill="rgb(99.21875%, 93.359375%, 56.443787%)" fill-opacity="1" d="M 2355.679688 2752.519531 C 2355.679688 2752.519531 2408.738281 2763.03125 2426.160156 2777.320312 C 2443.578125 2791.609375 2492.519531 2821.898438 2492.519531 2821.898438 C 2492.519531 2821.898438 2430.449219 2849.210938 2407.359375 2821.988281 C 2384.261719 2794.761719 2362.550781 2758.539062 2355.679688 2752.519531 "/>
<path fill-rule="nonzero" fill="rgb(99.21875%, 93.359375%, 56.443787%)" fill-opacity="1" d="M 1830.550781 2881.980469 C 1830.550781 2881.980469 1869.960938 2897.578125 1870.921875 2906.371094 C 1871.878906 2915.160156 1830.519531 2929.390625 1830.519531 2929.390625 L 1830.550781 2881.980469 "/>
<path fill-rule="nonzero" fill="rgb(99.21875%, 93.359375%, 56.443787%)" fill-opacity="1" d="M 2285.761719 2828.988281 C 2285.761719 2828.988281 2294.851562 2806.089844 2301.378906 2801.488281 C 2307.921875 2796.871094 2338.601562 2800.070312 2338.601562 2800.070312 C 2338.601562 2800.070312 2330.210938 2822.199219 2285.761719 2828.988281 "/>
</svg>
