<svg width="330" height="330" viewBox="0 0 330 330" fill="none" xmlns="http://www.w3.org/2000/svg">
<path d="M163.203 38.52C155.483 38.52 149.723 32.28 149.723 24C149.723 15.8 155.843 9.48 164.043 9.48C170.123 9.48 174.403 12.6 176.403 16.68L172.843 18.68C171.563 15.88 168.523 13.4 164.043 13.4C158.283 13.4 153.963 17.84 153.963 24C153.963 30.24 158.123 34.64 163.963 34.64C169.043 34.64 173.123 30.96 173.443 26.48V26.44H164.243V22.72H177.603V38H173.443V32.68H172.643C171.403 36.52 167.883 38.52 163.203 38.52Z" fill="white"/>
<path d="M188.521 40.8383C182.472 39.6725 179.203 34.4393 180.415 28.155C181.633 21.8313 186.874 18.5234 192.53 19.6135C198.657 20.7944 201.37 26.1648 200.144 31.4687L199.702 33.3388L184.03 30.3184C183.813 33.9834 185.573 36.6854 189.187 37.3819C191.661 37.8588 193.884 37.1058 195.418 35.4869L197.961 37.9324C195.829 40.3321 192.488 41.6028 188.521 40.8383ZM184.745 27.0342L196.607 29.3204C197.088 26.3987 195.186 23.5879 191.887 22.952C188.509 22.301 185.971 24.0524 184.745 27.0342Z" fill="white"/>
<path d="M213.13 47.723C210.234 46.5634 208.556 44.0821 209.998 40.48L214.309 29.7109L210.967 28.3729L212.231 25.2165L215.647 26.5842L217.372 22.2766L221.011 23.7335L219.286 28.0411L224.968 30.3157L223.704 33.4721L218.023 31.1976L213.786 41.781C213.191 43.2663 213.785 44.1504 214.936 44.6113L218.39 45.9939L217.067 49.2989L213.13 47.723Z" fill="white"/>
<path d="M248.11 69.4697L262.298 54.5897L265.164 57.3224L262.156 60.4779L262.764 61.0575C264.578 60.0241 267.845 59.3805 270.855 62.2512L267.902 65.3488L266.918 64.4103C263.907 61.5396 260.446 62.3293 258.155 64.7321L251.005 72.23L248.11 69.4697Z" fill="white"/>
<path d="M267.211 91.6036C263.638 86.5858 264.884 80.5428 270.097 76.8304C275.343 73.0948 281.418 74.3173 284.76 79.0092C288.379 84.0922 286.636 89.8509 282.089 92.8435L280.479 93.892L271.221 80.8914C268.534 83.3938 267.944 86.5642 270.078 89.5618C271.54 91.6146 273.668 92.6034 275.896 92.4904L276.049 96.0153C272.849 96.2803 269.555 94.8945 267.211 91.6036ZM274.004 79.0076L281.011 88.8477C283.376 87.0655 283.939 83.7184 281.99 80.9814C279.995 78.1793 276.95 77.6959 274.004 79.0076Z" fill="white"/>
<path d="M278.153 110.183C276.358 106.253 277.533 102.375 281.099 100.746C284.592 99.1512 288.203 100.8 290.081 104.912L292.756 110.77L293.265 110.537C295.558 109.49 296.629 107.022 295.366 104.257C294.153 101.601 291.901 101.002 290.257 101.445L289.687 97.7915C293.364 97.0799 296.754 98.9178 298.532 102.811C300.941 108.087 298.642 112.391 294.894 114.103L286.853 117.775C286.198 118.074 286.146 118.538 286.412 119.12L286.677 119.702L283.694 121.065L282.863 119.245C281.982 117.317 282.698 115.803 284.263 115.088L285.027 114.739L284.694 114.012C282.06 114.599 279.549 113.239 278.153 110.183ZM282.85 104.388C280.958 105.252 280.594 107.441 281.525 109.479C283.27 113.299 286.716 113.528 289.372 112.315L289.882 112.082L287.389 106.625C286.342 104.332 284.596 103.59 282.85 104.388Z" fill="white"/>
<path d="M286.482 133.108C285.19 127.783 288.736 122.889 294.722 121.436C300.748 119.975 306.19 122.729 307.473 128.016C308.293 131.398 307.042 134.212 304.985 135.575L305.174 136.353L317.924 133.26L318.857 137.108L289.703 144.181L288.769 140.332L292.346 139.465L292.148 138.649C289.549 138.456 287.302 136.49 286.482 133.108ZM295.684 125.401C291.447 126.429 289.425 129.801 290.311 133.455C291.217 137.187 294.871 139.017 298.758 138.074C303.19 136.999 305.048 133.461 304.209 130.001C303.341 126.425 299.844 124.392 295.684 125.401Z" fill="white"/>
<path d="M290.633 154.565L310.306 146.38L310.826 146.355L311.02 150.431L294.286 157.275L294.326 158.114L311.644 163.536L311.842 167.691L311.322 167.716L282.405 158.361L282.203 154.126L282.722 154.101L290.736 156.723L290.633 154.565Z" fill="white"/>
<path d="M283.423 207.556C284.444 204.608 286.842 202.814 290.509 204.083L301.471 207.877L302.649 204.475L305.862 205.587L304.658 209.064L309.043 210.582L307.761 214.286L303.376 212.769L301.374 218.552L298.161 217.44L300.163 211.657L289.39 207.928C287.878 207.405 287.023 208.04 286.617 209.212L285.401 212.727L282.036 211.563L283.423 207.556Z" fill="white"/>
<path d="M273.715 227.23C276.855 221.792 283.015 220.082 288.488 223.242C293.926 226.382 295.561 232.592 292.421 238.03C289.341 243.365 283.086 245.158 277.648 242.018C272.175 238.858 270.635 232.565 273.715 227.23ZM286.448 226.776C282.707 224.616 278.807 225.69 276.867 229.05C274.927 232.41 275.947 236.325 279.688 238.485C283.325 240.585 287.329 239.57 289.269 236.21C291.209 232.85 290.085 228.876 286.448 226.776Z" fill="white"/>
<path d="M246.622 260.82L259.331 276.981L256.219 279.429L253.523 276.002L252.863 276.521C253.628 278.464 253.8 281.789 250.53 284.361L247.884 280.997L248.953 280.156C252.223 277.584 251.934 274.046 249.882 271.436L243.478 263.293L246.622 260.82Z" fill="white"/>
<path d="M221.994 276.576C227.47 273.754 233.274 275.847 236.207 281.535C239.158 287.259 237.083 293.099 231.963 295.738C226.417 298.598 220.965 296.053 218.65 291.126L217.841 289.383L232.027 282.07C229.932 279.054 226.878 278.019 223.607 279.705C221.368 280.86 220.086 282.826 219.881 285.046L216.37 284.696C216.563 281.492 218.404 278.428 221.994 276.576ZM233.496 285.093L222.758 290.628C224.186 293.223 227.419 294.256 230.405 292.716C233.463 291.14 234.375 288.195 233.496 285.093Z" fill="white"/>
<path d="M198.458 285.816C201.797 284.836 204.623 285.799 206.166 287.931L206.972 287.694L205.935 284.163L209.735 283.047L218.187 311.832L214.387 312.948L210.691 300.359L209.923 300.585C209.694 303.07 207.844 305.572 204.544 306.541C199.324 308.074 194.294 304.715 192.547 298.766C190.812 292.856 193.162 287.372 198.458 285.816ZM208.974 293.943C207.847 290.105 204.435 287.855 200.75 288.937C197.143 289.996 195.234 293.433 196.462 297.617C197.668 301.723 201.177 303.736 204.708 302.7C208.124 301.697 210.258 298.318 208.974 293.943Z" fill="white"/>
<path d="M181.504 289.948L183.459 310.415L179.517 310.791L179.102 306.451L178.266 306.531C177.859 308.579 176.206 311.469 172.065 311.865L171.658 307.604L173.012 307.475C177.153 307.079 178.823 303.946 178.507 300.641L177.522 290.328L181.504 289.948Z" fill="white"/>
<path d="M154.657 290.117C158.958 290.527 161.729 293.484 161.357 297.387C160.992 301.209 157.758 303.512 153.258 303.083L146.848 302.47L146.794 303.028C146.555 305.536 148.157 307.698 151.183 307.987C154.09 308.265 155.734 306.614 156.172 304.968L159.621 306.302C158.399 309.842 155.113 311.859 150.852 311.452C145.078 310.9 142.5 306.757 142.892 302.655L143.732 293.855C143.801 293.139 143.425 292.862 142.788 292.801L142.151 292.74L142.463 289.475L144.454 289.665C146.564 289.866 147.518 291.243 147.354 292.955L147.274 293.792L148.071 293.868C148.879 291.293 151.312 289.797 154.657 290.117ZM157.327 297.082C157.525 295.012 155.811 293.602 153.581 293.389C149.4 292.99 147.479 295.86 147.201 298.767L147.148 299.325L153.121 299.895C155.629 300.135 157.145 298.993 157.327 297.082Z" fill="white"/>
<path d="M137.497 288.423L131.704 308.15L127.866 307.023L128.903 303.492L128.136 303.267C126.902 305.197 124.343 306.53 121.311 305.64C116.743 304.299 115.328 300.173 116.433 296.412L120.264 283.363L124.102 284.49L120.598 296.426C119.797 299.151 121.268 301.667 123.84 302.422C126.795 303.29 129.422 301.727 130.278 298.81L133.659 287.296L137.497 288.423Z" fill="white"/>
<path d="M108.281 277.273C113.152 279.784 114.529 285.669 111.706 291.144C108.865 296.655 103.219 298.964 98.3837 296.472C95.2905 294.877 93.9832 292.088 94.2997 289.641L93.5886 289.274L87.5767 300.936L84.0569 299.121L97.8037 272.456L101.323 274.271L99.6372 277.542L100.384 277.927C102.231 276.089 105.188 275.678 108.281 277.273ZM108.079 289.274C110.077 285.399 108.853 281.663 105.511 279.94C102.098 278.18 98.3219 279.744 96.489 283.299C94.3995 287.352 95.8563 291.073 99.0206 292.705C102.291 294.391 106.118 293.079 108.079 289.274Z" fill="white"/>
<path d="M70.4052 249.123L47.7327 268.769L45.1132 265.746L67.7857 246.1L70.4052 249.123Z" fill="white"/>
<path d="M56.0099 229.655L38.2045 239.935L36.2045 236.471L54.0099 226.191L56.0099 229.655ZM35.1068 241.77L31.0191 244.13L28.9991 240.631L33.0868 238.271L35.1068 241.77Z" fill="white"/>
<path d="M47.5491 213.472L19.1991 223.284L17.9039 219.542L34.6115 213.759L34.3498 213.003L23.8811 207.949L22.3373 203.489L22.8287 203.319L32.3191 207.992L41.1443 196.556L41.6357 196.386L43.0748 200.544L35.9448 209.784L40.1303 211.849L46.2539 209.73L47.5491 213.472Z" fill="white"/>
<path d="M39.7332 182.211C40.6098 188.308 36.7336 193.109 30.3987 194.02C24.0243 194.936 19.1842 191.066 18.3644 185.364C17.4764 179.188 21.6642 174.868 27.0773 174.292L28.9891 174.098L31.2605 189.895C34.7951 188.902 36.7727 186.355 36.249 182.712C35.8904 180.218 34.4519 178.364 32.4202 177.443L33.8994 174.24C36.8647 175.471 39.1582 178.212 39.7332 182.211ZM27.9233 190.294L26.2041 178.337C23.2857 178.837 21.2516 181.555 21.7298 184.88C22.2194 188.285 24.7044 190.11 27.9233 190.294Z" fill="white"/>
<path d="M41.5194 136.918C40.5009 141.116 37.1798 143.438 33.3703 142.514C29.6385 141.609 27.8191 138.08 28.8847 133.688L30.403 127.429L29.8588 127.297C27.4098 126.703 25.0418 127.981 24.3251 130.935C23.6367 133.773 25.037 135.636 26.6037 136.304L24.7925 139.528C21.4626 137.814 19.9342 134.274 20.9432 130.115C22.3106 124.478 26.7791 122.517 30.7829 123.488L39.3738 125.572C40.0735 125.742 40.401 125.41 40.5519 124.788L40.7028 124.166L43.8903 124.939L43.4188 126.883C42.919 128.943 41.4204 129.691 39.7489 129.285L38.9326 129.087L38.744 129.865C41.1776 131.031 42.3115 133.652 41.5194 136.918ZM34.245 138.569C36.2663 139.06 37.9052 137.564 38.4333 135.387C39.4235 131.305 36.8558 128.995 34.0181 128.306L33.4739 128.174L32.0594 134.005C31.4652 136.454 32.3791 138.117 34.245 138.569Z" fill="white"/>
<path d="M62.7467 90.1537C60.7281 92.9884 57.9117 93.9783 55.3811 93.2566L54.8938 93.9408L57.8915 96.0754L55.5944 99.3011L31.1572 81.8994L33.4542 78.6737L44.1414 86.2841L44.6055 85.6324C43.2493 83.5373 43.1564 80.4266 45.1518 77.6245C48.3073 73.1932 54.3376 72.7241 59.388 76.3204C64.4058 79.8936 65.9486 85.6572 62.7467 90.1537ZM49.4574 90.266C52.7157 92.5862 56.7885 92.2455 59.016 89.1175C61.197 86.0547 60.5729 82.1729 57.0213 79.6439C53.535 77.1613 49.5322 77.7483 47.3976 80.7459C45.3326 83.6458 45.7429 87.6209 49.4574 90.266Z" fill="white"/>
<path d="M77.3086 73.531C72.7636 77.8647 66.3718 77.7691 62.0105 73.1951C57.6768 68.6501 57.8579 62.2321 62.4029 57.8984C66.8611 53.6475 73.3673 53.6892 77.701 58.2342C82.0623 62.8082 81.7668 69.2801 77.3086 73.531ZM64.9633 70.3796C67.9445 73.5061 71.9886 73.5741 74.7967 70.8966C77.6048 68.2191 77.7293 64.1763 74.7482 61.0498C71.8499 58.0101 67.7229 57.8552 64.9148 60.5327C62.1067 63.2103 62.065 67.3399 64.9633 70.3796Z" fill="white"/>
<path d="M95.9145 58.8C91.9101 61.3735 87.9567 60.9187 85.2052 58.265L87.7483 55.4894C89.5819 57.3066 92.0141 57.17 94.134 55.8076C96.6914 54.164 97.3334 52.2775 96.4684 50.9315C95.7331 49.7874 94.505 49.5781 92.5846 50.2892L89.1789 51.5746C86.3428 52.6365 83.2328 52.8283 81.2216 49.6988C79.4267 46.9059 80.4679 43.051 84.5732 40.4127C88.1064 38.142 91.9975 38.3516 94.6384 40.9813L92.1626 43.7136C90.7352 42.1584 88.464 41.9538 86.4114 43.2729C84.2914 44.6354 83.6735 46.4114 84.452 47.6228C85.1873 48.7669 86.4394 48.8656 88.2709 48.1641L91.6093 46.922C94.9814 45.6583 97.8943 45.9735 99.7325 48.8338C101.787 52.0306 100.323 55.9671 95.9145 58.8Z" fill="white"/>
<path d="M117.157 47.7375C112.738 49.5066 108.942 48.3118 106.743 45.1854L109.765 42.9413C111.221 45.0726 113.636 45.3987 115.975 44.4622C118.797 43.3323 119.785 41.6013 119.19 40.1159C118.685 38.8534 117.518 38.4155 115.498 38.7503L111.911 39.3679C108.925 39.8738 105.835 39.4736 104.452 36.0201C103.218 32.9379 104.97 29.3498 109.5 27.5361C113.4 25.9751 117.181 26.9173 119.276 29.9992L116.328 32.2136C115.221 30.4164 113.029 29.7857 110.764 30.6925C108.425 31.6291 107.482 33.2561 108.017 34.5929C108.522 35.8555 109.733 36.1894 111.664 35.8472L115.178 35.2593C118.728 34.6566 121.528 35.5174 122.792 38.6739C124.204 42.2017 122.022 45.79 117.157 47.7375Z" fill="white"/>
<path d="M137.314 32.3089L135.034 24.0716L132.944 13.2311L137.029 12.4438L139.118 23.2843L140.063 31.779L137.314 32.3089ZM138.008 40.7705L136.986 35.4681L141.856 34.5294L142.878 39.8318L138.008 40.7705Z" fill="white"/>
</svg>
